<svg xmlns="http://www.w3.org/2000/svg" width="221.161" height="76.643" viewBox="0 0 221.161 76.643">
  <g id="Foreground" transform="translate(0.001 0)">
    <g id="Group_22" data-name="Group 22" transform="translate(-0.001 0)">
      <g id="Group_15" data-name="Group 15" transform="translate(212.865 26.449)">
        <path id="Path_13" data-name="Path 13" d="M432.516,57.816a3.559,3.559,0,1,0,3.559-3.559A3.559,3.559,0,0,0,432.516,57.816Zm-.589,0a4.148,4.148,0,1,1,4.148,4.148A4.148,4.148,0,0,1,431.927,57.816Z" transform="translate(-431.927 -53.668)" fill="#fff"/>
        <path id="Path_14" data-name="Path 14" d="M437.107,61.878c.18-.013.36-.034.541-.034s.36.02.541.034V59.713h.051c.159.256.36.566.468.749l.858,1.416c.216-.013.433-.034.649-.034s.44.02.656.034l-.281-.418c-.433-.627-.88-1.248-1.276-1.9a1.234,1.234,0,0,0,1.125-1.214,1,1,0,0,0-.627-.965,3.068,3.068,0,0,0-1.167-.135h-1.535v4.627Zm1.081-4.263c.44,0,.98-.054,1.1.506a1.627,1.627,0,0,1,.036.338c0,.695-.375,1.032-1.132.964Z" transform="translate(-434.554 -55.485)" fill="#fff" fill-rule="evenodd"/>
      </g>
      <g id="Group_21" data-name="Group 21">
        <g id="Group_16" data-name="Group 16" transform="translate(75.115)">
          <path id="Path_15" data-name="Path 15" d="M152.415,14.071c12.758-5.546,32.338-10.269,54.64-12.6,40.213-4.209,74.045.945,75.567,11.509,1.142,7.932-16.252,16.659-42.01,22.3,20.013-5.819,32.7-13.4,31.587-20.181C270.471,4.617,236.4.037,196.092,4.865A231.049,231.049,0,0,0,152.415,14.071Z" transform="translate(-152.415 0)" fill="#fff"/>
        </g>
        <g id="Group_17" data-name="Group 17" transform="translate(0 26.208)">
          <path id="Path_16" data-name="Path 16" d="M26.453,84.331a17.508,17.508,0,0,1-9.3,3.223c-7.4,0-10.313-5.157-8.717-12.506C9.809,68.73,14.513,61.9,22.487,61.9A8.082,8.082,0,0,1,29.6,65.85h.673c.711-1.5,1.317-2.966,2.066-4.427A20.753,20.753,0,0,0,23,59.318C12.526,59.318,2.768,64.432.33,75.649c-1.914,8.81,4.636,14.484,14.917,14.484a25.95,25.95,0,0,0,9.914-1.848l1.86-3.7Z" transform="translate(0.001 -56.293)" fill="#fff" fill-rule="evenodd"/>
          <path id="Path_17" data-name="Path 17" d="M57.633,98.862c1.124-.086,2.257-.215,3.362-.215s2.182.129,3.268.215l1.69-7.779A21.08,21.08,0,0,1,67.324,86.1a5.542,5.542,0,0,1,5.036-2.836,4.528,4.528,0,0,1,2.329.559l.507-.344a33.273,33.273,0,0,1,1.51-5.845c-4.708,0-7.382,2.578-9.072,5.716l1.158-5.329c-1.124.086-2.257.215-3.362.215s-2.182-.13-3.268-.215Z" transform="translate(-29.229 -65.581)" fill="#fff" fill-rule="evenodd"/>
          <path id="Path_18" data-name="Path 18" d="M99.661,86.4c.591-2.278,1.917-6.833,5.424-6.833,2.883,0,2.181,4.555,1.686,6.833Zm13.291,2.063c1.863-6.146.047-10.831-7.5-10.831-6.966,0-11.935,4.3-13.242,10.315-1.522,7.006,1.628,11.3,9.6,11.3a15.927,15.927,0,0,0,7.29-1.934l1.58-2.406-.492-.387a12.007,12.007,0,0,1-6.041,1.934c-5.092,0-6.047-3.567-4.941-7.994Z" transform="translate(-46.58 -65.58)" fill="#fff" fill-rule="evenodd"/>
          <path id="Path_19" data-name="Path 19" d="M165.62,54.434c-1.124.086-2.257.215-3.362.215s-2.182-.129-3.268-.215l-3.156,14.527c-.908-2.234-3.027-3.094-5.862-3.094-6.341,0-10.439,5.372-11.624,10.831-1.2,5.544.01,10.787,7.12,10.787a8.723,8.723,0,0,0,7.487-4.169l-.822,3.782c1.076-.086,2.161-.215,3.265-.215,1.057,0,2.086.129,3.124.215Zm-13.8,14.226c3.843,0,3.146,5.2,2.6,7.693-.588,2.707-2.34,8.337-6.471,8.337-3.891,0-3.06-5.372-2.519-7.865C146.02,74.118,147.685,68.66,151.817,68.66Z" transform="translate(-69.96 -53.816)" fill="#fff" fill-rule="evenodd"/>
          <path id="Path_20" data-name="Path 20" d="M187.208,87.672c1.124-.086,2.257-.215,3.362-.215s2.182.129,3.268.215l4.528-20.844c-1.124.086-2.257.215-3.362.215s-2.182-.13-3.268-.215Zm5.756-28.709a2.826,2.826,0,0,0,3.01,3.4,4.839,4.839,0,0,0,4.581-3.4c.4-1.848-1.04-3.4-3.106-3.4A4.762,4.762,0,0,0,192.964,58.963Z" transform="translate(-94.947 -54.391)" fill="#fff" fill-rule="evenodd"/>
          <path id="Path_21" data-name="Path 21" d="M224.932,73.426h4.083a9.423,9.423,0,0,1,.6-2.75H225.53l1.634-7.521c-2.52.989-4.878,1.891-7.209,2.665L218.9,70.676h-3.266a9.439,9.439,0,0,1-.6,2.75H218.3l-2.5,11.518c-.869,4-.408,6.962,4.588,6.962a18.273,18.273,0,0,0,5.211-.989l.364-1.676c-4.49.988-4.337-.6-3.692-3.567Z" transform="translate(-109.06 -58.239)" fill="#fff" fill-rule="evenodd"/>
          <path id="Path_22" data-name="Path 22" d="M286.857,70.02c1.54-7.333-.835-16.841-15.905-16.841-13.167,0-22.489,7.617-24.535,17.031-2.333,10.738,4.21,16.888,15.9,16.888C275.267,87.1,284.905,79.245,286.857,70.02Zm-16.839-14c7.932,0,9.582,7,8.257,13.1-1.706,7.853-6.938,15.138-15.081,15.138-7.932,0-9.634-6.528-8.3-12.678C257.2,60.984,262.667,56.017,270.017,56.017Z" transform="translate(-124.738 -53.179)" fill="#fff" fill-rule="evenodd"/>
          <path id="Path_23" data-name="Path 23" d="M325.846,96.706c1.236-.095,2.483-.237,3.7-.237s2.4.142,3.6.237l2.364-10.881c.648-2.98,1.851-8.515,6.451-8.515,3.7,0,3.637,3.217,2.681,7.617l-2.56,11.779c1.237-.095,2.484-.237,3.7-.237s2.4.142,3.6.237l3.012-13.861c1.233-5.677.374-9.509-6.289-9.509-3.278,0-6.4,1.7-9,3.926l.76-3.5c-1.184.095-2.378.236-3.541.236-1.216,0-2.349-.142-3.491-.236Z" transform="translate(-165.26 -63.403)" fill="#fff" fill-rule="evenodd"/>
          <path id="Path_24" data-name="Path 24" d="M392.1,82.987c.651-2.507,2.11-7.522,5.97-7.522,3.173,0,2.4,5.014,1.856,7.522Zm14.63,2.27c2.052-6.766.052-11.921-8.25-11.921-7.667,0-13.137,4.731-14.576,11.354-1.675,7.711,1.791,12.441,10.569,12.441A17.54,17.54,0,0,0,402.5,95l1.739-2.649-.542-.425a13.22,13.22,0,0,1-6.65,2.129c-5.6,0-6.656-3.926-5.438-8.8Z" transform="translate(-194.499 -63.402)" fill="#fff" fill-rule="evenodd"/>
        </g>
        <g id="Group_20" data-name="Group 20" transform="translate(49.793 64.755)">
          <path id="Path_25" data-name="Path 25" d="M101.035,143.5h2.432a6.869,6.869,0,0,0,3.72-.68,4.3,4.3,0,0,0,2.089-2.874c.383-1.973-1.284-2.585-2.594-2.67a4.086,4.086,0,0,0,3.271-3.01c.34-1.752-.837-2.347-3.337-2.347h-3.333Zm3.623-10.953h1.259c1.786,0,2.8.46,2.488,2.075a2.821,2.821,0,0,1-1.709,2.058,6.924,6.924,0,0,1-2.91.357Zm-.994,5.119h.953c2.058,0,3.411.561,3.022,2.569a3.345,3.345,0,0,1-3.369,2.636h-1.615Z" transform="translate(-101.035 -131.659)" fill="#fff" fill-rule="evenodd"/>
          <path id="Path_26" data-name="Path 26" d="M171.306,131.4h-.391L163.3,143.283c.19-.017.384-.051.605-.051.2,0,.384.034.619.051.787-1.6,1.689-3.095,2.575-4.592h4.32c.38,1.548.675,3.18.894,4.592.292-.017.588-.051.911-.051.289,0,.554.034.874.051Zm0,6.582h-3.742l2.7-4.354Z" transform="translate(-132.615 -131.396)" fill="#fff" fill-rule="evenodd"/>
          <g id="Group_18" data-name="Group 18" transform="translate(97.028 0.255)">
            <path id="Path_27" data-name="Path 27" d="M308.525,131.914c-.241.017-.47.051-.673.051-.238,0-.452-.034-.67-.051l-5.022,4.32c-.284.238-.711.6-1.063.833-.2.136-.447.2-.445.1l1.021-5.255c-.276.017-.52.051-.758.051-.256,0-.5-.034-.739-.051l-2.259,11.633c.241-.017.5-.051.758-.051.238,0,.47.034.738.051l1.153-5.936c.013-.068.207-.017.279.051L303.709,142a13.4,13.4,0,0,1,.873,1.547c.309-.017.639-.051.962-.051.289,0,.588.034.926.051l.017-.085-1.047-1.7c-1.054-1.581-2.168-3.112-3.225-4.677l1.729-1.463Z" transform="translate(-297.916 -131.914)" fill="#fff" fill-rule="evenodd"/>
          </g>
          <g id="Group_19" data-name="Group 19" transform="translate(63.195 0.255)">
            <path id="Path_28" data-name="Path 28" d="M241.388,131.914c-.173.017-.333.051-.486.051a3.761,3.761,0,0,1-.466-.051l-1.7,8.758h-.171l-6.377-8.758h-.663l-2.259,11.633a4.384,4.384,0,0,1,.486-.051,4.666,4.666,0,0,1,.466.051L232,134.38h.171l5.768,8.129c.281.391.542.8.683,1.037h.51Z" transform="translate(-229.266 -131.914)" fill="#fff" fill-rule="evenodd"/>
          </g>
        </g>
      </g>
    </g>
  </g>
</svg>
