<svg xmlns="http://www.w3.org/2000/svg" width="314.748" height="366.012" viewBox="0 0 314.748 366.012">
  <g id="Group_35" data-name="Group 35" transform="translate(-18.595 -13.48)">
    <path id="Path_45" data-name="Path 45" d="M318.961,144.972C317.608,72.26,258.076,13.48,185.064,13.48c-61.136,0-112.75,41.141-128.786,97.165H46.808V18.491H36.785v92.154H18.6V289.993H38.639l-1.9,22,110.445,67.5H222.9l110.445-67.5Zm-65.345-39.087a5.082,5.082,0,0,1-7.116,0L220.994,80.378a5.032,5.032,0,0,1,7.116-7.116l25.507,25.507A5.051,5.051,0,0,1,253.616,105.885ZM199.1,80.428a4.99,4.99,0,0,1,7.066,0l17.188,17.188a4.99,4.99,0,0,1,0,7.066,5.059,5.059,0,0,1-3.558,1.5,4.974,4.974,0,0,1-3.558-1.5L199.1,87.544A5.051,5.051,0,0,1,199.1,80.428Zm26.96,285.383V226.7l73.964-31.319V161.959H69.608v33.424L143.572,226.7V365.511l-13.43-8.218c5.913-38.135-5.161-76.119-32.272-110.144a206.979,206.979,0,0,0-42.043-39.538l4.009-46.5.752-8.97h248.9l4.811,55.774a206.858,206.858,0,0,0-41.592,39.237c-27.06,33.925-38.135,71.859-32.322,109.894Z" transform="translate(0 0)" fill="#101f37"/>
  </g>
</svg>
