<svg xmlns="http://www.w3.org/2000/svg" width="348.375" height="366.012" viewBox="0 0 348.375 366.012">
  <g id="Group_37" data-name="Group 37" transform="translate(-1626.025 -575)">
    <path id="Path_46" data-name="Path 46" d="M247.5,140.044c-60.2,41.558-44.073,114.913-44.073,114.913s-24.608,43.815-25.162,44.881c-.554-1.062-25.162-44.881-25.162-44.881s16.131-73.354-44.073-114.909C24.746,81.869,4.075,0,4.075,0s1.066,142.786,1.6,175.815,12.74,60.614,27.172,74.056c11.693,10.886,46.349,30.9,46.349,30.9l39.427,85.241-10.658-76.184,70.278,13.836a.038.038,0,0,1,0,.011l.027,0,.027,0a.038.038,0,0,1,0-.011l70.278-13.836-10.658,76.184,39.427-85.237s34.655-20.015,46.349-30.9c14.432-13.442,26.637-41.027,27.172-74.056S352.45,0,352.45,0,331.779,81.869,247.5,140.044Z" transform="translate(1621.95 575)" fill="#1796d4"/>
    <g id="Group_36" data-name="Group 36" transform="translate(1708.625 797.104)">
      <path id="Path_47" data-name="Path 47" d="M60.854,90.478s27.275-26.55,42.431-31.295,6.053,18.98-5.109,22.5S60.854,90.478,60.854,90.478Z" transform="translate(71.902 -58.558)" fill="#fff"/>
      <path id="Path_48" data-name="Path 48" d="M76.273,90.478S49,63.928,33.842,59.183s-6.053,18.98,5.109,22.5S76.273,90.478,76.273,90.478Z" transform="translate(-25.853 -58.558)" fill="#fff"/>
    </g>
    <path id="Path_47-2" data-name="Path 47" d="M108.705,85.625H51.342L39.25,99.374l12.092-5.689h57.363L120.8,99.374Z" transform="translate(1720.189 814.139)" fill="#1796d4"/>
  </g>
</svg>
